<svg xmlns="http://www.w3.org/2000/svg" width="32" height="32" viewBox="0 0 32 32" fill="none">
  <g clip-path="url(#clip0_28712_11913)">
    <path fill-rule="evenodd" clip-rule="evenodd"
      d="M15.9998 0C20.2431 0 24.3128 1.68608 27.3133 4.68652C30.3135 7.68689 31.9988 11.756 31.9988 15.999C31.9988 19.1634 31.0605 22.2566 29.3025 24.8877C27.5446 27.5187 25.0462 29.5693 22.1228 30.7803C19.1994 31.9912 15.9822 32.3087 12.8787 31.6914C9.77527 31.0741 6.92479 29.5499 4.68729 27.3125C2.44976 25.075 0.925723 22.2237 0.308388 19.1201C-0.308821 16.0168 0.00776325 12.8002 1.21854 9.87695C2.42947 6.95351 4.48011 4.45431 7.11112 2.69629C9.74212 0.938313 12.8355 4.7857e-05 15.9998 0ZM12.4725 10.8145C12.2556 10.7839 12.034 10.8017 11.825 10.8662C11.6162 10.9307 11.4243 11.0397 11.2644 11.1865C11.1044 11.3334 10.9808 11.5144 10.9012 11.7148C10.8216 11.9152 10.7881 12.1303 10.8045 12.3447C10.8209 12.5592 10.8827 12.7306 10.992 12.917C11.072 13.0536 11.3289 13.2842 11.3289 13.2842L14.0017 15.9668L11.3289 18.6309C11.0549 18.9003 10.9003 19.2657 10.9002 19.6465C10.9002 20.0274 11.0549 20.3926 11.3289 20.6621C11.4634 20.7977 11.6239 20.9059 11.8016 20.9795C11.9791 21.0531 12.1703 21.0908 12.3631 21.0908C12.5556 21.0908 12.7462 21.053 12.9236 20.9795C13.1012 20.9059 13.2618 20.7977 13.3963 20.6621L16.0701 18.1328L18.7039 20.7588C18.8409 20.8971 19.0046 21.0074 19.1853 21.083C19.3662 21.1587 19.561 21.198 19.7576 21.1992C19.9473 21.202 20.1357 21.1663 20.3103 21.0938C20.485 21.0212 20.6422 20.913 20.7723 20.7773C21.0462 20.5078 21.2 20.1426 21.2 19.7617C21.2 19.3809 21.0463 19.0156 20.7723 18.7461L18.0994 16.082L20.7723 13.3994C21.0462 13.13 21.1999 12.7645 21.2 12.3838C21.2 12.0029 21.0463 11.6367 20.7723 11.3672C20.4979 11.0981 20.1258 10.9473 19.7381 10.9473C19.3504 10.9473 18.9783 11.0981 18.7039 11.3672L16.0701 14.0127L13.4158 11.3672C13.4069 11.3571 13.2523 11.1831 13.0779 11.043C12.896 10.9233 12.6892 10.8451 12.4725 10.8145Z"
      fill="var(--fill-4)" />
  </g>
  <defs>
    <clipPath id="clip0_28712_11913">
      <rect width="32" height="32" fill="white" />
    </clipPath>
  </defs>
</svg>