<svg xmlns="http://www.w3.org/2000/svg" width="16" height="16" viewBox="0 0 16 16" fill="none">
  <path fill-rule="evenodd" clip-rule="evenodd"
    d="M2.88981 2.88966C3.18736 2.59212 3.66977 2.59212 3.96731 2.88966L7.99999 6.92234L12.0327 2.88966C12.3302 2.59212 12.8126 2.59212 13.1102 2.88966C13.4077 3.1872 13.4077 3.66961 13.1102 3.96716L9.07749 7.99984L13.1102 12.0325C13.4077 12.3301 13.4077 12.8125 13.1102 13.11C12.8126 13.4076 12.3302 13.4076 12.0327 13.11L7.99999 9.07733L3.96731 13.11C3.66977 13.4076 3.18736 13.4076 2.88981 13.11C2.59227 12.8125 2.59227 12.3301 2.88981 12.0325L6.92249 7.99984L2.88981 3.96716C2.59227 3.66961 2.59227 3.1872 2.88981 2.88966Z"
    fill="var(--text-4)" />
</svg>