<svg width="32" height="32" viewBox="0 0 32 32" fill="none" xmlns="http://www.w3.org/2000/svg">
  <g clip-path="url(#clip0_close_icon)">
    <rect width="32" height="32" rx="16" fill="#E5EAEB"/>
    <path d="M20.4067 10.7446C20.641 10.5103 21.021 10.5103 21.2553 10.7446C21.489 10.9789 21.4893 11.3582 21.2553 11.5923L16.8471 15.9995L21.2553 20.4067C21.4892 20.6411 21.4895 21.0212 21.2553 21.2554C21.0211 21.4895 20.641 21.4892 20.4067 21.2554L15.9995 16.8472L11.5922 21.2554C11.3581 21.4893 10.9789 21.489 10.7446 21.2554C10.5103 21.0211 10.5103 20.6411 10.7446 20.4067L15.1508 15.9995L10.7446 11.5923C10.5103 11.358 10.5103 10.9789 10.7446 10.7446C10.9789 10.5103 11.3579 10.5103 11.5922 10.7446L15.9995 15.1509L20.4067 10.7446Z" fill="#242424"/>
  </g>
  <defs>
    <clipPath id="clip0_close_icon">
      <rect width="32" height="32" fill="white"/>
    </clipPath>
  </defs>
</svg>
