<svg width="161" height="24" viewBox="0 0 161 24" fill="none" xmlns="http://www.w3.org/2000/svg">
<g clip-path="url(#clip0_2793_11245)">
<mask id="mask0_2793_11245" style="mask-type:luminance" maskUnits="userSpaceOnUse" x="0" y="0" width="161" height="24">
<path d="M160.941 0H0V24H160.941V0Z" fill="white"/>
</mask>
<g mask="url(#mask0_2793_11245)">
<path d="M7.34077 15.277C9.01321 15.277 10.4078 14.7177 11.5219 13.5991C12.636 12.4805 13.1943 11.081 13.1943 9.40306C13.1943 7.72516 12.6386 6.32823 11.5219 5.21488C10.4078 4.10153 9.01321 3.54223 7.34077 3.54223H3.79741V15.277H7.34077ZM7.4228 0C8.78299 0 10.0611 0.23895 11.2625 0.719475C12.4613 1.2 13.4881 1.85383 14.3428 2.68359C15.1976 3.51335 15.8697 4.51116 16.3619 5.6744C16.8541 6.83764 17.1002 8.07965 17.1002 9.40306C17.1002 10.7265 16.8541 11.9685 16.3619 13.1317C15.8697 14.295 15.1949 15.2928 14.3428 16.1278C13.4881 16.9628 12.4613 17.6193 11.2625 18.0998C10.0638 18.5803 8.78299 18.8193 7.4228 18.8193H0V0H7.4228Z" fill="white"/>
<path d="M26.738 4.68701H27.3413V8.35003H26.738C25.4678 8.35003 24.4754 8.69664 23.7662 9.38986C23.0544 10.083 22.6998 11.0231 22.6998 12.2126V18.8191H19.1299V4.91546H22.6998V6.71415C23.7742 5.36447 25.1211 4.68964 26.7406 4.68964" fill="white"/>
<path d="M67.1811 15.7155C68.2925 15.7155 69.2081 15.3505 69.9332 14.6179C70.6583 13.8853 71.0208 12.9689 71.0208 11.8687C71.0208 10.7685 70.6583 9.85205 69.9332 9.11682C69.2081 8.38422 68.2899 8.01923 67.1811 8.01923C66.0723 8.01923 65.1646 8.38684 64.429 9.1247C63.6959 9.85993 63.3281 10.7763 63.3281 11.8687C63.3281 12.961 63.6959 13.8748 64.429 14.6127C65.162 15.3505 66.0802 15.7181 67.1811 15.7181M72.5504 17.0599C71.1082 18.4542 69.3193 19.1501 67.1811 19.1501C65.0429 19.1501 63.2514 18.4542 61.8065 17.0599C60.3616 15.6656 59.6392 13.9352 59.6392 11.8661C59.6392 9.79691 60.3616 8.06649 61.8065 6.67218C63.2514 5.27787 65.0429 4.58203 67.1811 4.58203C69.3193 4.58203 71.1108 5.27787 72.5504 6.67218C73.99 8.06649 74.7097 9.79691 74.7097 11.8661C74.7097 13.9352 73.99 15.6656 72.5504 17.0599Z" fill="white"/>
<path d="M84.7684 4.58203C86.4249 4.58203 87.7507 5.07306 88.7484 6.05512C89.746 7.03717 90.2461 8.34483 90.2461 9.97809V18.8219H86.6631V11.123C86.6631 10.1829 86.3826 9.4293 85.8242 8.86474C85.2659 8.30282 84.5196 8.01923 83.5881 8.01923C82.6566 8.01923 81.8231 8.3107 81.2197 8.891C80.6164 9.47131 80.312 10.238 80.312 11.1886V18.8192H76.7422V4.91551H80.312V6.45949C81.4393 5.20698 82.9239 4.58203 84.7684 4.58203Z" fill="white"/>
<path d="M132.155 19.1579C129.882 19.1579 127.913 18.4489 126.249 17.0283L127.979 14.6835C129.17 15.7128 130.533 16.2274 132.073 16.2274C132.806 16.2274 133.404 16.1119 133.865 15.8808C134.325 15.6498 134.555 15.3294 134.555 14.9224C134.555 14.6992 134.492 14.5049 134.362 14.3368C134.232 14.1688 134.023 14.0218 133.738 13.8983C133.452 13.7749 133.176 13.6725 132.912 13.5911C132.647 13.5123 132.279 13.4178 131.803 13.3128C131.48 13.2419 131.226 13.1841 131.038 13.1395C130.85 13.0948 130.594 13.0266 130.266 12.932C129.94 12.8401 129.675 12.7535 129.474 12.6721C129.273 12.5907 129.032 12.483 128.757 12.3465C128.479 12.2099 128.254 12.0681 128.08 11.9263C127.905 11.7846 127.723 11.6112 127.529 11.4064C127.336 11.2016 127.185 10.9837 127.074 10.7552C126.963 10.5242 126.87 10.259 126.799 9.95702C126.728 9.65505 126.693 9.33208 126.693 8.98547C126.693 8.03492 126.958 7.22354 127.484 6.54871C128.011 5.87387 128.699 5.37759 129.546 5.06249C130.393 4.74739 131.348 4.58984 132.412 4.58984C134.478 4.58984 136.291 5.19904 137.847 6.41479L136.116 8.78591C134.971 7.93251 133.764 7.50713 132.491 7.50713C131.848 7.50713 131.319 7.60954 130.909 7.81435C130.498 8.01917 130.292 8.31588 130.292 8.70713C130.292 8.93033 130.356 9.12201 130.48 9.28744C130.604 9.45286 130.811 9.59466 131.097 9.71282C131.382 9.83098 131.66 9.93076 131.927 10.0042C132.197 10.0804 132.568 10.167 133.042 10.2642C133.452 10.3535 133.782 10.4296 134.034 10.49C134.283 10.553 134.611 10.6502 135.013 10.7841C135.415 10.918 135.743 11.0493 136 11.1832C136.254 11.3172 136.532 11.4957 136.831 11.7215C137.13 11.9474 137.366 12.1916 137.535 12.4463C137.704 12.7036 137.85 13.0187 137.972 13.3916C138.093 13.7644 138.154 14.1688 138.154 14.6047C138.154 15.5552 137.887 16.3797 137.35 17.0808C136.812 17.7819 136.098 18.3045 135.204 18.6458C134.309 18.9872 133.293 19.1579 132.155 19.1579Z" fill="white"/>
<path d="M144.947 19.1579C142.674 19.1579 140.705 18.4489 139.041 17.0283L140.771 14.6835C141.962 15.7128 143.325 16.2274 144.865 16.2274C145.598 16.2274 146.196 16.1119 146.657 15.8808C147.117 15.6498 147.347 15.3294 147.347 14.9224C147.347 14.6992 147.284 14.5049 147.154 14.3368C147.024 14.1688 146.815 14.0218 146.53 13.8983C146.244 13.7749 145.969 13.6725 145.704 13.5911C145.439 13.5123 145.071 13.4178 144.595 13.3128C144.272 13.2419 144.018 13.1841 143.83 13.1395C143.642 13.0948 143.386 13.0266 143.058 12.932C142.732 12.8401 142.468 12.7535 142.266 12.6721C142.065 12.5907 141.824 12.483 141.549 12.3465C141.271 12.2099 141.046 12.0681 140.872 11.9263C140.697 11.7846 140.515 11.6112 140.321 11.4064C140.128 11.2016 139.977 10.9837 139.866 10.7552C139.755 10.5242 139.662 10.259 139.591 9.95702C139.52 9.65505 139.485 9.33208 139.485 8.98547C139.485 8.03492 139.75 7.22354 140.276 6.54871C140.803 5.87387 141.491 5.37759 142.338 5.06249C143.185 4.74739 144.14 4.58984 145.204 4.58984C147.271 4.58984 149.083 5.19904 150.639 6.41479L148.909 8.78591C147.763 7.93251 146.556 7.50713 145.283 7.50713C144.64 7.50713 144.111 7.60954 143.701 7.81435C143.291 8.01917 143.084 8.31588 143.084 8.70713C143.084 8.93033 143.148 9.12201 143.272 9.28744C143.396 9.45286 143.603 9.59466 143.889 9.71282C144.174 9.83098 144.452 9.93076 144.72 10.0042C144.989 10.0804 145.36 10.167 145.834 10.2642C146.244 10.3535 146.577 10.4296 146.826 10.49C147.075 10.553 147.403 10.6502 147.805 10.7841C148.207 10.918 148.535 11.0493 148.792 11.1832C149.046 11.3172 149.324 11.4957 149.623 11.7215C149.922 11.9474 150.158 12.1916 150.327 12.4463C150.496 12.7036 150.642 13.0187 150.764 13.3916C150.885 13.7644 150.946 14.1688 150.946 14.6047C150.946 15.5552 150.679 16.3797 150.142 17.0808C149.605 17.7819 148.89 18.3045 147.996 18.6458C147.101 18.9872 146.085 19.1579 144.947 19.1579Z" fill="white"/>
<path d="M51.5759 7.92742C53.124 7.92742 54.381 9.17468 54.381 10.7108C54.381 12.2469 53.124 13.4942 51.5759 13.4942C50.0279 13.4942 48.7709 12.2469 48.7709 10.7108C48.7709 9.17468 50.0279 7.92742 51.5759 7.92742ZM51.4701 19.2395H50.0596C49.3954 19.2395 48.8556 18.8404 48.6809 18.2207C48.5301 17.6824 48.6862 16.955 49.3769 16.5375L49.4589 16.4876L49.5514 16.5139C50.2474 16.7135 50.9567 16.8159 51.6553 16.8159C54.0925 16.8159 56.3154 15.5791 57.4612 13.5861C58.5277 11.7349 58.4615 9.53442 57.2813 7.55193L57.194 7.40751L59.2343 5.383L56.6356 2.80444L54.2937 5.13092L54.1613 5.08365C53.3595 4.78956 52.5127 4.63989 51.6421 4.63989C49.7156 4.63989 47.8923 5.36462 46.6433 6.63026C45.5583 7.72786 44.9999 9.14055 45.0317 10.7187C45.0317 12.415 45.643 13.8539 46.847 14.9962L47.0561 15.1957L46.8073 15.3428C45.68 16.0071 44.9337 17.4172 44.9469 18.8561C44.9416 19.8671 45.2883 20.7467 45.9446 21.4032C46.7252 22.1804 47.8975 22.611 49.2445 22.611H53.8331C54.9392 22.611 55.855 22.9839 56.0667 24.0001H59.856C59.1733 18.5568 55.9291 19.2395 51.4621 19.2395" fill="white"/>
<path d="M103.393 14.6179C102.668 15.3505 101.752 15.7155 100.641 15.7155C99.5289 15.7155 98.6238 15.3479 97.8882 14.61C97.1552 13.8748 96.7873 12.9584 96.7873 11.8661C96.7873 10.7737 97.1552 9.85993 97.8882 9.12208C98.6212 8.38422 99.5395 8.0166 100.641 8.0166C101.741 8.0166 102.668 8.38422 103.393 9.11682C104.118 9.84943 104.48 10.7658 104.48 11.8661C104.48 12.9663 104.118 13.8827 103.393 14.6179ZM106.012 6.67218C104.573 5.27787 102.781 4.58203 100.643 4.58203C99.1346 4.58203 97.8035 4.93652 96.6391 5.62973V4.91551H93.0693V24H96.6391V18.105C97.8009 18.7982 99.1346 19.1527 100.643 19.1527C102.781 19.1527 104.573 18.4569 106.012 17.0626C107.452 15.6682 108.174 13.9378 108.174 11.8687C108.174 9.79954 107.455 8.06912 106.012 6.67481" fill="white"/>
<path d="M114.361 9.11682C115.087 8.38422 116.002 8.01923 117.114 8.01923C118.225 8.01923 119.13 8.38684 119.866 9.1247C120.599 9.85993 120.967 10.7763 120.967 11.8687C120.967 12.961 120.599 13.8748 119.866 14.6127C119.133 15.3505 118.214 15.7181 117.114 15.7181C116.013 15.7181 115.087 15.3531 114.361 14.6205C113.636 13.8879 113.274 12.9715 113.274 11.8713C113.274 10.7711 113.636 9.85468 114.361 9.11945M111.744 17.0599C113.184 18.4542 114.975 19.1501 117.114 19.1501C118.622 19.1501 119.953 18.7956 121.117 18.1024V18.8166H124.687V4.91551H121.117V5.62973C119.956 4.93652 118.622 4.58203 117.114 4.58203C114.975 4.58203 113.184 5.27787 111.744 6.67218C110.305 8.06649 109.582 9.79691 109.582 11.8661C109.582 13.9352 110.302 15.6656 111.744 17.0599Z" fill="white"/>
<path d="M32.6789 9.11682C33.4039 8.38422 34.3222 8.01923 35.431 8.01923C36.5398 8.01923 37.4475 8.38684 38.1831 9.1247C38.9161 9.85993 39.284 10.7763 39.284 11.8687C39.284 12.961 38.9161 13.8748 38.1831 14.6127C37.4501 15.3505 36.5318 15.7181 35.431 15.7181C34.3301 15.7181 33.4039 15.3531 32.6789 14.6205C31.9538 13.8879 31.5913 12.9715 31.5913 11.8713C31.5913 10.7711 31.9538 9.85468 32.6789 9.11945M30.0617 17.0599C31.5039 18.4542 33.2928 19.1501 35.431 19.1501C36.9394 19.1501 38.2705 18.7956 39.4348 18.1024V18.8166H43.0046V4.91551H39.4348V5.62973C38.2705 4.93652 36.9394 4.58203 35.431 4.58203C33.2928 4.58203 31.5013 5.27787 30.0617 6.67218C28.6221 8.06649 27.9023 9.79691 27.9023 11.8661C27.9023 13.9352 28.6221 15.6656 30.0617 17.0599Z" fill="white"/>
<path d="M160.941 4.91561C160.941 7.04253 159.205 8.76507 157.062 8.76507C154.918 8.76507 153.182 7.04253 153.182 4.91561C153.182 2.7887 154.918 1.06616 157.062 1.06616C159.205 1.06616 160.941 2.79133 160.941 4.91561Z" fill="#FA4A3D"/>
</g>
</g>
<defs>
<clipPath id="clip0_2793_11245">
<rect width="161" height="24" fill="white"/>
</clipPath>
</defs>
</svg>
