<svg width="85" height="85" viewBox="0 0 85 85" fill="none" xmlns="http://www.w3.org/2000/svg">
  <rect x="0.5" y="0.5" width="84" height="84" rx="42" fill="var(--fill-2)" />
  <path
    d="M51.8331 60.1002H33.1664C30.133 60.1002 27.3664 57.7667 26.8664 54.7667L24.6497 41.5001C24.2997 39.4334 25.2997 36.7834 26.9497 35.4668L38.4997 26.2167C40.7331 24.4167 44.2497 24.4334 46.4997 26.2334L58.0497 35.4668C59.683 36.7834 60.683 39.4334 60.3497 41.5001L58.1331 54.7667C57.6331 57.7167 54.8164 60.1002 51.8331 60.1002ZM42.483 27.4C41.5997 27.4 40.7164 27.6668 40.0664 28.1834L28.5164 37.4333C27.5664 38.2 26.9164 39.9001 27.1164 41.1001L29.3331 54.3667C29.6331 56.1167 31.383 57.6002 33.1664 57.6002H51.8331C53.6164 57.6002 55.3664 56.1167 55.6664 54.35L57.8831 41.0834C58.0831 39.8834 57.4164 38.1666 56.4831 37.4166L44.933 28.1834C44.2664 27.6668 43.383 27.4 42.483 27.4Z"
    fill="var(--text-4)" />
  <path
    d="M46.0329 47.7167C45.7163 47.7167 45.4163 47.6001 45.1663 47.3667C43.5496 45.8167 41.4496 45.8167 39.8163 47.3667C39.3163 47.8501 38.5329 47.8334 38.0496 47.3334C37.5662 46.8334 37.5829 46.0499 38.0829 45.5666C40.6663 43.0833 44.2829 43.0833 46.8829 45.5666C47.3829 46.0499 47.3996 46.8334 46.9163 47.3334C46.6996 47.5834 46.3663 47.7167 46.0329 47.7167Z"
    fill="var(--text-4)" />
  <path
    d="M49.5663 44.183C49.2496 44.183 48.933 44.0664 48.6996 43.8331C47.9163 43.0664 47.033 42.4496 46.0996 41.9996C43.7663 40.8829 41.2163 40.8829 38.8996 41.9996C37.9663 42.4496 37.0996 43.0664 36.2996 43.8331C35.8163 44.3164 35.0163 44.3164 34.533 43.8164C34.0496 43.3164 34.0663 42.533 34.5497 42.0496C35.533 41.083 36.633 40.3163 37.8163 39.7496C40.833 38.2996 44.1663 38.2996 47.1663 39.7496C48.3496 40.3163 49.4497 41.083 50.433 42.0496C50.933 42.533 50.933 43.3164 50.4496 43.8164C50.2163 44.0497 49.8996 44.183 49.5663 44.183Z"
    fill="var(--text-4)" />
  <path
    d="M42.4999 51.6665C42.0666 51.6665 41.6499 51.4997 41.3166 51.1831C40.6666 50.5331 40.6666 49.4832 41.3166 48.8332C41.9666 48.1832 43.0332 48.1832 43.6832 48.8332C44.3332 49.4832 44.3332 50.5331 43.6832 51.1831C43.3499 51.4997 42.9333 51.6665 42.4999 51.6665Z"
    fill="var(--text-4)" />
</svg>