<svg width="243" height="229" viewBox="0 0 243 229" fill="none" xmlns="http://www.w3.org/2000/svg">
<g filter="url(#filter0_d_14203_6012)">
<mask id="path-1-outside-1_14203_6012" maskUnits="userSpaceOnUse" x="10.5469" y="7.09863" width="216" height="202" fill="black">
<rect fill="white" x="10.5469" y="7.09863" width="216" height="202"/>
<path d="M12.5469 28.046C12.5469 17.5817 21.0299 9.09863 31.4942 9.09863H206.231C216.695 9.09863 225.178 17.5817 225.178 28.046V190.151C225.178 200.616 216.695 209.099 206.231 209.099H31.4942C21.0299 209.099 12.5469 200.616 12.5469 190.151V28.046Z"/>
</mask>
<path d="M12.5469 28.046C12.5469 17.5817 21.0299 9.09863 31.4942 9.09863H206.231C216.695 9.09863 225.178 17.5817 225.178 28.046V190.151C225.178 200.616 216.695 209.099 206.231 209.099H31.4942C21.0299 209.099 12.5469 200.616 12.5469 190.151V28.046Z" fill="white" fill-opacity="0.6" shape-rendering="crispEdges"/>
<path d="M11.4942 28.046C11.4942 17.0003 20.4485 8.046 31.4942 8.046H206.231C217.277 8.046 226.231 17.0003 226.231 28.046H224.126C224.126 18.163 216.114 10.1513 206.231 10.1513H31.4942C21.6113 10.1513 13.5995 18.163 13.5995 28.046H11.4942ZM13.5995 28.046M225.178 209.099H12.5469H225.178M31.4942 209.099C20.4485 209.099 11.4942 200.144 11.4942 189.099V28.046C11.4942 17.0003 20.4485 8.046 31.4942 8.046V10.1513C21.6113 10.1513 13.5995 18.163 13.5995 28.046V190.151C13.5995 200.616 21.6113 209.099 31.4942 209.099V209.099ZM206.231 8.046C217.277 8.046 226.231 17.0003 226.231 28.046V189.099C226.231 200.144 217.277 209.099 206.231 209.099V209.099C216.114 209.099 224.126 200.616 224.126 190.151V28.046C224.126 18.163 216.114 10.1513 206.231 10.1513V8.046Z" fill="black" fill-opacity="0.1" mask="url(#path-1-outside-1_14203_6012)"/>
<path fill-rule="evenodd" clip-rule="evenodd" d="M108.805 103.099C108.805 102.502 109.042 101.93 109.464 101.508C109.886 101.086 110.458 100.849 111.055 100.849H127.555C128.151 100.849 128.724 101.086 129.146 101.508C129.568 101.93 129.805 102.502 129.805 103.099V115.099C129.805 115.695 129.568 116.268 129.146 116.69C128.724 117.112 128.151 117.349 127.555 117.349H111.055C110.458 117.349 109.886 117.112 109.464 116.69C109.042 116.268 108.805 115.695 108.805 115.099V103.099ZM110.305 113.159V115.099C110.305 115.513 110.641 115.849 111.055 115.849H127.555C127.754 115.849 127.944 115.77 128.085 115.629C128.226 115.488 128.305 115.298 128.305 115.099V113.159L125.615 110.47C125.333 110.189 124.952 110.031 124.555 110.031C124.157 110.031 123.776 110.189 123.495 110.47L122.615 111.349L123.585 112.319C123.658 112.387 123.717 112.47 123.758 112.562C123.799 112.654 123.822 112.753 123.823 112.854C123.825 112.955 123.807 113.055 123.769 113.148C123.731 113.242 123.675 113.326 123.604 113.398C123.533 113.469 123.448 113.525 123.354 113.563C123.261 113.6 123.161 113.619 123.06 113.617C122.959 113.615 122.86 113.593 122.768 113.552C122.676 113.511 122.593 113.452 122.525 113.379L117.365 108.22C117.083 107.939 116.702 107.781 116.305 107.781C115.907 107.781 115.526 107.939 115.245 108.22L110.305 113.16V113.159ZM120.43 105.349C120.43 105.05 120.548 104.764 120.759 104.553C120.97 104.342 121.256 104.224 121.555 104.224C121.853 104.224 122.139 104.342 122.35 104.553C122.561 104.764 122.68 105.05 122.68 105.349C122.68 105.647 122.561 105.933 122.35 106.144C122.139 106.355 121.853 106.474 121.555 106.474C121.256 106.474 120.97 106.355 120.759 106.144C120.548 105.933 120.43 105.647 120.43 105.349Z" fill="#0F0F0F"/>
</g>
<defs>
<filter id="filter0_d_14203_6012" x="-0.00011301" y="1.23978e-05" width="242.323" height="228.639" filterUnits="userSpaceOnUse" color-interpolation-filters="sRGB">
<feFlood flood-opacity="0" result="BackgroundImageFix"/>
<feColorMatrix in="SourceAlpha" type="matrix" values="0 0 0 0 0 0 0 0 0 0 0 0 0 0 0 0 0 0 127 0" result="hardAlpha"/>
<feOffset dx="2.29885" dy="5.74713"/>
<feGaussianBlur stdDeviation="6.89655"/>
<feComposite in2="hardAlpha" operator="out"/>
<feColorMatrix type="matrix" values="0 0 0 0 0 0 0 0 0 0.427451 0 0 0 0 0.819608 0 0 0 0.1 0"/>
<feBlend mode="normal" in2="BackgroundImageFix" result="effect1_dropShadow_14203_6012"/>
<feBlend mode="normal" in="BackgroundImageFix" in2="effect1_dropShadow_14203_6012" result="BackgroundImageFix"/>
<feBlend mode="normal" in="SourceGraphic" in2="BackgroundImageFix" result="shape"/>
</filter>
</defs>
</svg>
