<svg width="40" height="40" viewBox="0 0 40 40" fill="none" xmlns="http://www.w3.org/2000/svg">
  <rect width="40" height="40" rx="12" fill="#EEF7FB" />
  <path
    d="M19 31H12C11.4477 31 11 30.5523 11 30V23H19V31ZM29 30C29 30.5523 28.5523 31 28 31H21V23H29V30ZM24.5 9C25.4283 9 26.3182 9.36902 26.9746 10.0254C27.631 10.6818 28 11.5717 28 12.5C28 13.0239 27.8824 13.5356 27.6621 14H30C30.5523 14 31 14.4477 31 15V20C31 20.5523 30.5523 21 30 21H21V17C21 16.4477 20.5523 16 20 16C19.4477 16 19 16.4477 19 17V21H10C9.44772 21 9 20.5523 9 20V15C9 14.4477 9.44772 14 10 14H12.3379C12.1176 13.5356 12 13.0239 12 12.5C12 11.5717 12.369 10.6818 13.0254 10.0254C13.6818 9.36901 14.5717 9 15.5 9C17.8061 9 19.1924 10.6621 19.9385 12.0186C19.9596 12.0569 19.9797 12.0955 20 12.1338C20.0203 12.0955 20.0404 12.0569 20.0615 12.0186C20.8076 10.6621 22.1939 9 24.5 9ZM15.5 11C15.1022 11 14.7208 11.1581 14.4395 11.4395C14.1581 11.7208 14 12.1022 14 12.5C14 12.8978 14.1581 13.2792 14.4395 13.5605C14.7208 13.8419 15.1022 14 15.5 14H18.6543C18.5322 13.6806 18.3776 13.3289 18.1865 12.9814C17.5576 11.838 16.6938 11 15.5 11ZM24.5 11C23.3062 11 22.4424 11.838 21.8135 12.9814C21.6224 13.3289 21.4678 13.6806 21.3457 14H24.5C24.8978 14 25.2792 13.8418 25.5605 13.5605C25.8419 13.2792 26 12.8978 26 12.5C26 12.1022 25.8419 11.7208 25.5605 11.4395C25.2792 11.1582 24.8978 11 24.5 11Z"
    fill="#0EA4DF" />
</svg>