<svg width="24" height="24" viewBox="0 0 24 24" fill="none" xmlns="http://www.w3.org/2000/svg">
<path fill-rule="evenodd" clip-rule="evenodd" d="M12 2.25C6.615 2.25 2.25 6.615 2.25 12C2.25 17.385 6.615 21.75 12 21.75C17.385 21.75 21.75 17.385 21.75 12C21.75 6.615 17.385 2.25 12 2.25ZM8.547 4.505C7.23052 5.11184 6.09718 6.05483 5.2611 7.23903C4.42502 8.42323 3.91573 9.80683 3.7845 11.2505C3.65327 12.6941 3.90474 14.1469 4.5136 15.4624C5.12245 16.778 6.06718 17.9099 7.25266 18.7441C8.43814 19.5784 9.82251 20.0856 11.2664 20.2146C12.7102 20.3436 14.1626 20.0899 15.4772 19.479C16.7918 18.8682 17.9222 17.9217 18.7547 16.735C19.5871 15.5482 20.0922 14.163 20.219 12.719L19.759 12.259C19.5877 12.0876 19.4452 11.8898 19.337 11.673L18.257 9.513C18.2276 9.45438 18.1847 9.40357 18.1318 9.36478C18.079 9.32598 18.0176 9.3003 17.9529 9.28986C17.8881 9.27941 17.8218 9.28449 17.7594 9.30468C17.697 9.32487 17.6403 9.3596 17.594 9.406C17.4897 9.51022 17.3594 9.58465 17.2166 9.62157C17.0738 9.6585 16.9238 9.65657 16.782 9.616L15.509 9.253C15.3053 9.19574 15.0879 9.21291 14.8958 9.30143C14.7036 9.38996 14.5492 9.54404 14.4604 9.73605C14.3716 9.92807 14.354 10.1455 14.4109 10.3492C14.4679 10.553 14.5955 10.7298 14.771 10.848L15.358 11.238C15.948 11.633 16.032 12.468 15.53 12.97L15.33 13.17C15.119 13.382 15 13.668 15 13.966V14.376C15 14.785 14.89 15.185 14.68 15.534L13.365 17.725C13.1775 18.0377 12.9123 18.2964 12.5951 18.476C12.2779 18.6557 11.9195 18.7501 11.555 18.75C11.2752 18.75 11.0069 18.6388 10.809 18.441C10.6112 18.2431 10.5 17.9748 10.5 17.695V16.523C10.5 15.603 9.94 14.776 9.086 14.434L8.432 14.173C7.95525 13.9824 7.55803 13.6345 7.30628 13.187C7.05453 12.7395 6.96339 12.2194 7.048 11.713L7.055 11.671C7.10148 11.3928 7.19986 11.1258 7.345 10.884L7.435 10.734C7.67382 10.3363 8.02972 10.0222 8.45398 9.83455C8.87824 9.64695 9.35011 9.59506 9.805 9.686L10.983 9.922C11.2602 9.97729 11.5481 9.9262 11.7893 9.77889C12.0306 9.63158 12.2075 9.39885 12.285 9.127L12.493 8.397C12.5651 8.14481 12.5467 7.87536 12.4412 7.63524C12.3356 7.39513 12.1495 7.19944 11.915 7.082L11.25 6.75L11.159 6.841C10.9501 7.04993 10.702 7.21566 10.429 7.32874C10.1561 7.44181 9.86347 7.5 9.568 7.5H9.388C9.139 7.5 8.901 7.6 8.726 7.774C8.56562 7.93584 8.35145 8.03324 8.12407 8.04776C7.89669 8.06229 7.67187 7.99293 7.4922 7.85281C7.31253 7.7127 7.19048 7.51156 7.14916 7.28749C7.10784 7.06343 7.15012 6.83198 7.268 6.637L8.547 4.505Z" fill="url(#paint0_linear_14176_3085)"/>
<defs>
<linearGradient id="paint0_linear_14176_3085" x1="5.41894" y1="21.3588" x2="18.5435" y2="7.93354" gradientUnits="userSpaceOnUse">
<stop offset="0.000869827" stop-color="#4EBC73" stop-opacity="0.2"/>
<stop offset="1" stop-color="#4EBC73"/>
</linearGradient>
</defs>
</svg>
