<svg width="32" height="32" viewBox="0 0 32 32" fill="none" xmlns="http://www.w3.org/2000/svg">
  <g clip-path="url(#clip0_12053_4971)">
    <rect width="32" height="32" rx="16" fill="var(--fill-2)" />
    <g clip-path="url(#clip1_12053_4971)">
      <path
        d="M16.3703 8.80957C20.1746 9.00232 23.2004 12.1478 23.2004 16L23.1906 16.3701C22.9979 20.1744 19.8523 23.2001 16.0002 23.2002L15.6291 23.1904C11.9477 23.0036 8.99628 20.0516 8.80975 16.3701L8.79999 16C8.79999 12.0235 12.0237 8.7998 16.0002 8.7998L16.3703 8.80957ZM16.0002 10C12.6865 10 10.0002 12.6863 10.0002 16C10.0003 19.3136 12.6865 22 16.0002 22C19.3137 21.9999 22.0001 19.3136 22.0002 16C22.0002 12.6864 19.3138 10.0001 16.0002 10ZM16.0002 18.6006C16.3315 18.6007 16.5998 18.8689 16.5998 19.2002V19.2803C16.5995 19.6114 16.3313 19.8798 16.0002 19.8799C15.669 19.8799 15.4008 19.6114 15.4006 19.2803V19.2002C15.4006 18.8688 15.6688 18.6006 16.0002 18.6006ZM15.9992 12.2002C16.5942 12.2002 17.1394 12.4919 17.5236 12.876C17.9077 13.2601 18.1993 13.8045 18.1994 14.3994C18.1994 14.9092 18.0694 15.3188 17.8605 15.6582C17.6599 15.9841 17.4 16.2216 17.1945 16.4014C16.7332 16.8051 16.5998 16.9237 16.5998 17.2002C16.5996 17.5314 16.3304 17.7998 15.9992 17.7998C15.6683 17.7994 15.3998 17.5311 15.3996 17.2002C15.3996 16.2769 16.0661 15.7941 16.4045 15.498C16.5988 15.328 16.7397 15.1906 16.8391 15.0293C16.9302 14.8812 16.9992 14.6896 16.9992 14.3994C16.9991 14.1946 16.8906 13.9393 16.675 13.7236C16.4593 13.5082 16.2039 13.3994 15.9992 13.3994C15.7945 13.3997 15.5389 13.5081 15.3234 13.7236C15.1079 13.9393 14.9993 14.1947 14.9992 14.3994C14.9992 14.7308 14.731 15 14.3996 15C14.0684 14.9998 13.8 14.7307 13.8 14.3994C13.8001 13.8045 14.0917 13.2601 14.4758 12.876C14.8598 12.492 15.4044 12.2005 15.9992 12.2002Z"
        fill="var(--text-5)"
      />
    </g>
  </g>
  <defs>
    <clipPath id="clip0_12053_4971">
      <rect width="32" height="32" fill="white" />
    </clipPath>
    <clipPath id="clip1_12053_4971">
      <rect width="16" height="16" fill="white" transform="translate(8 8)" />
    </clipPath>
  </defs>
</svg>