<svg width="130" height="111" viewBox="0 0 130 111" fill="none" xmlns="http://www.w3.org/2000/svg">
<circle cx="37.7721" cy="42.0287" r="37.772" fill="url(#paint0_linear_7188_14573)" fill-opacity="0.57"/>
<circle cx="63.8396" cy="53.2" r="53.2" fill="url(#paint1_linear_7188_14573)"/>
<circle cx="78.2036" cy="59.0527" r="51.604" fill="url(#paint2_linear_7188_14573)" fill-opacity="0.57"/>
<g clip-path="url(#clip0_7188_14573)">
<path d="M63.8407 36.1758C67.6031 36.1759 71.2115 37.6706 73.8719 40.3311C76.5324 42.9915 78.0272 46.5999 78.0272 50.3623C78.0272 55.8979 74.5022 60.8543 71.2538 64.2832C69.6006 66.0282 67.9521 67.4475 66.7186 68.4297C66.1009 68.9216 65.5845 69.3068 65.2196 69.5703C65.0374 69.7019 64.8926 69.8033 64.7919 69.873C64.7415 69.9079 64.7013 69.9353 64.6737 69.9541L64.6415 69.9756L64.6317 69.9824L64.6288 69.9844L63.8407 68.8047L64.6268 69.9854C64.1504 70.3028 63.529 70.3029 63.0526 69.9854L63.0487 69.9824L63.0389 69.9756L63.0067 69.9541C62.9791 69.9353 62.9399 69.9079 62.8895 69.873C62.7888 69.8033 62.6434 69.7022 62.4608 69.5703C62.0959 69.3068 61.5796 68.9216 60.9618 68.4297C59.7283 67.4474 58.0799 66.0283 56.4266 64.2832C53.1782 60.8543 49.6532 55.8978 49.6532 50.3623C49.6532 46.5999 51.1481 42.9915 53.8085 40.3311C56.469 37.6705 60.0782 36.1758 63.8407 36.1758ZM63.8407 39.0127C60.8308 39.0127 57.9437 40.2087 55.8153 42.3369C53.6869 44.4653 52.4911 47.3523 52.4911 50.3623C52.4911 54.7574 55.3507 59.0223 58.4862 62.332C60.025 63.9563 61.5689 65.2859 62.7294 66.21C63.1612 66.5538 63.5386 66.8402 63.8407 67.0635C64.1428 66.8402 64.5203 66.5537 64.952 66.21C66.1124 65.2859 67.6556 63.9561 69.1942 62.332C72.3298 59.0223 75.1893 54.7574 75.1893 50.3623C75.1893 47.3523 73.9935 44.4653 71.8651 42.3369C69.7368 40.2088 66.8504 39.0128 63.8407 39.0127ZM63.8407 44.6875C66.9745 44.6877 69.5145 47.2285 69.5145 50.3623C69.5145 53.4962 66.9746 56.0369 63.8407 56.0371C60.7067 56.0371 58.1659 53.4963 58.1659 50.3623C58.166 47.2283 60.7067 44.6875 63.8407 44.6875ZM63.8407 47.5254C62.2737 47.5254 61.0029 48.7954 61.0028 50.3623C61.0028 51.9293 62.2737 53.2002 63.8407 53.2002C65.4076 53.2 66.6776 51.9292 66.6776 50.3623C66.6775 48.7955 65.4075 47.5256 63.8407 47.5254Z" fill="white"/>
</g>
<defs>
<linearGradient id="paint0_linear_7188_14573" x1="1.77062" y1="79.8007" x2="1.77062" y2="4.25671" gradientUnits="userSpaceOnUse">
<stop stop-color="#B5EAFF"/>
<stop offset="1" stop-color="#E7F9FF"/>
</linearGradient>
<linearGradient id="paint1_linear_7188_14573" x1="26.2216" y1="90.8181" x2="101.458" y2="15.5819" gradientUnits="userSpaceOnUse">
<stop stop-color="#009EDC"/>
<stop offset="1" stop-color="#61C6EE"/>
</linearGradient>
<linearGradient id="paint2_linear_7188_14573" x1="29.0185" y1="110.657" x2="29.0186" y2="7.44873" gradientUnits="userSpaceOnUse">
<stop stop-color="#B5EAFF"/>
<stop offset="1" stop-color="#E7F9FF"/>
</linearGradient>
<clipPath id="clip0_7188_14573">
<rect width="34.048" height="34.048" fill="white" transform="translate(46.8164 36.1758)"/>
</clipPath>
</defs>
</svg>
