<svg width="84" height="84" viewBox="0 0 84 84" fill="none" xmlns="http://www.w3.org/2000/svg">
<rect width="84" height="84" rx="42" fill="var(--fill-1)"/>
<path d="M42.4999 60.1893C32.6166 60.1893 24.5833 52.156 24.5833 42.2726C24.5833 32.3893 32.6166 24.356 42.4999 24.356C52.3833 24.356 60.4166 32.3893 60.4166 42.2726C60.4166 42.956 59.8499 43.5226 59.1666 43.5226C58.4832 43.5226 57.9166 42.956 57.9166 42.2726C57.9166 33.7726 50.9999 26.856 42.4999 26.856C33.9999 26.856 27.0833 33.7726 27.0833 42.2726C27.0833 50.7726 33.9999 57.6893 42.4999 57.6893C43.1833 57.6893 43.7499 58.256 43.7499 58.9393C43.7499 59.6226 43.1833 60.1893 42.4999 60.1893Z" fill="var(--text-3)"/>
<path d="M37.5004 58.5227H35.8337C35.1504 58.5227 34.5837 57.956 34.5837 57.2727C34.5837 56.5894 35.1171 56.0394 35.8004 56.0227C33.1837 47.0894 33.1837 37.456 35.8004 28.5227C35.1337 28.506 34.5837 27.956 34.5837 27.2727C34.5837 26.5894 35.1504 26.0227 35.8337 26.0227H37.5004C37.9004 26.0227 38.2837 26.2227 38.5171 26.5394C38.7504 26.8727 38.8171 27.2894 38.6837 27.6727C35.5504 37.0894 35.5504 47.4727 38.6837 56.8894C38.8171 57.2727 38.7504 57.6894 38.5171 58.0227C38.2837 58.3561 37.9004 58.5227 37.5004 58.5227Z" fill="var(--text-3)"/>
<path d="M49.9333 43.5226C49.2499 43.5226 48.6833 42.956 48.6833 42.2726C48.6833 37.306 47.8832 32.3893 46.3166 27.6726C46.0999 27.0226 46.4499 26.3059 47.0999 26.0893C47.7499 25.8726 48.4666 26.2227 48.6833 26.8727C50.3333 31.8393 51.1833 37.0226 51.1833 42.2726C51.1833 42.956 50.6166 43.5226 49.9333 43.5226Z" fill="var(--text-3)"/>
<path d="M42.5 50.9562C37.8333 50.9562 33.2167 50.2895 28.75 48.9728C28.7333 49.6395 28.1833 50.1895 27.5 50.1895C26.8167 50.1895 26.25 49.6228 26.25 48.9395V47.2728C26.25 46.8728 26.45 46.4895 26.7667 46.2562C27.1 46.0228 27.5167 45.9561 27.9 46.0894C32.6167 47.6561 37.5333 48.4562 42.5 48.4562C43.1833 48.4562 43.75 49.0228 43.75 49.7062C43.75 50.3895 43.1833 50.9562 42.5 50.9562Z" fill="var(--text-3)"/>
<path d="M57.5002 38.5227C57.3669 38.5227 57.2335 38.506 57.1002 38.456C47.6835 35.3227 37.3002 35.3227 27.8835 38.456C27.2335 38.6727 26.5169 38.3227 26.3002 37.6727C26.0836 37.0227 26.4336 36.306 27.0836 36.0893C37.0169 32.7726 47.9502 32.7726 57.8669 36.0893C58.5169 36.306 58.8669 37.0227 58.6502 37.6727C58.5169 38.1893 58.0169 38.5227 57.5002 38.5227Z" fill="var(--text-3)"/>
<path d="M52.8333 59.1894C49.2 59.1894 46.25 56.2394 46.25 52.6061C46.25 48.9727 49.2 46.0227 52.8333 46.0227C56.4667 46.0227 59.4167 48.9727 59.4167 52.6061C59.4167 56.2394 56.4667 59.1894 52.8333 59.1894ZM52.8333 48.5227C50.5833 48.5227 48.75 50.3561 48.75 52.6061C48.75 54.8561 50.5833 56.6894 52.8333 56.6894C55.0833 56.6894 56.9167 54.8561 56.9167 52.6061C56.9167 50.3561 55.0833 48.5227 52.8333 48.5227Z" fill="var(--text-3)"/>
<path d="M59.1666 60.1894C58.85 60.1894 58.5333 60.0728 58.2833 59.8228L56.6167 58.1561C56.1333 57.6728 56.1333 56.8727 56.6167 56.3894C57.1 55.906 57.9 55.906 58.3833 56.3894L60.05 58.056C60.5333 58.5394 60.5333 59.3395 60.05 59.8228C59.8 60.0728 59.4833 60.1894 59.1666 60.1894Z" fill="var(--text-3)"/>
</svg>
