<svg width="24" height="24" viewBox="0 0 24 24" fill="none" xmlns="http://www.w3.org/2000/svg">
  <rect width="24" height="24" rx="12" fill="white"/>
  <path d="M8.24039 7.38553C7.92898 7.07413 7.37608 7.06777 7.05196 7.39189C6.72784 7.72236 6.7342 8.27526 7.03925 8.58031L10.8015 12.3426L7.0456 16.0985C6.72784 16.4163 6.72784 16.9628 7.05196 17.287C7.38243 17.6111 7.92262 17.6111 8.24038 17.2933L11.9963 13.5374L15.7586 17.2933C16.0764 17.6111 16.6229 17.6174 16.947 17.287C17.2711 16.9628 17.2711 16.4163 16.9534 16.0985L13.1975 12.3426L16.9534 8.58031C17.2648 8.27526 17.2775 7.716 16.947 7.39189C16.6229 7.06777 16.0637 7.07413 15.7586 7.38553L11.9963 11.1415L8.24039 7.38553Z" fill="#0F0F0F"/>
</svg>
