<svg width="180" height="180" viewBox="0 0 180 180" fill="none" xmlns="http://www.w3.org/2000/svg">
<path fill-rule="evenodd" clip-rule="evenodd" d="M0.265735 24.953L0.319905 49.9044H25.3791H50.4384L50.4926 24.953L50.5467 0.00172458H25.3791H0.211564L0.265735 24.953ZM71.872 6.79193V13.5821H75.6043H79.3365V6.79193V0.00172458H75.6043H71.872V6.79193ZM86.3744 3.23516V6.46859H90H93.6256V10.0254V13.5821H90H86.3744V20.9113V28.2404H97.2512H108.128V31.7971V35.3539H93.7322H79.3365V39.0185V42.683H75.6043H71.872V35.4669V28.2505L75.5509 28.1916L79.2299 28.1326V24.5758V21.019L68.513 20.9632L57.7962 20.9074V24.5739V28.2404H61.3152H64.8341V31.7971V35.3539H61.3152H57.7962V42.683V50.0121H61.3152H64.8341V53.6767V57.3413H54.064H43.2938V60.898V64.4548H57.5829H71.872V71.7839V79.113H75.6043H79.3365V71.7839V64.4548H82.8555H86.3744V68.0116V71.5684H90H93.6256V75.3407V79.113H90H86.3744V86.3344V93.5557H93.519H100.664V97.2203V100.885H90H79.3365V104.549V108.214H72.0853H64.8341V104.549V100.885H61.3152H57.7962V108.106V115.327H61.3152H64.8341V118.884V122.441H61.3152H57.7962V129.77V137.099H64.8341H71.872V133.542V129.986H68.3531H64.8341V126.213V122.441H75.6043H86.3744V133.435V144.428H89.9949H93.6154L93.6738 148.039L93.7322 151.65H97.2512H100.77V148.093V144.536L97.1979 144.477L93.6256 144.418V140.759V137.099H100.877H108.128V133.542V129.986H111.647H115.166V140.872V151.757H111.647H108.128V155.314V158.871H97.2512H86.3744V155.314V151.757H82.8606H79.3467L79.2883 148.147L79.2299 144.536H75.6043H71.9787L71.9202 148.147L71.8618 151.757H68.348H64.8341V148.093V144.428H61.3152H57.7962V162.212V179.996H61.3152H64.8341V173.095V166.194L72.032 166.251L79.2299 166.308L79.2885 169.806L79.3469 173.304L75.6629 173.362L71.9787 173.421V176.655V179.888H75.6043H79.2299L79.2889 176.709L79.3478 173.529H82.8612H86.3744V169.865V166.2H89.9949H93.6154L93.6738 169.811L93.7322 173.421H97.2512H100.77L100.829 169.811L100.887 166.2H108.026H115.166V169.865V173.529H118.679H122.192L122.251 176.709L122.31 179.888H125.936H129.562L129.621 176.709L129.68 173.529H143.963H158.246V176.765V180L169.07 179.944L179.893 179.888V176.655V173.421L176.321 173.362L172.749 173.303V169.752V166.2H176.374H180V158.979V151.757H172.749H165.498V155.314V158.871H161.872H158.246V162.536V166.2H154.727H151.209V158.979V151.757H154.727H158.246V144.428V137.099H169.123H180V118.992V100.885H176.374H172.749V97.2203V93.5557H176.374H180V89.8911V86.2266H172.749H165.498V93.5557V100.885H161.872H158.246V104.549V108.214H161.872H165.498V111.771V115.327H169.017H172.536V122.657V129.986H165.391H158.246V133.542V137.099H154.727H151.209V129.77V122.441H154.727H158.246V118.884V115.327H143.957H129.668V111.771V108.214H133.187H136.706V104.549V100.885H140.332H143.957V104.549V108.214H147.583H151.209V100.885V93.5557H154.727H158.246V89.8911V86.2266H143.957H129.668V82.6698V79.113H133.187H136.706V75.3407V71.5684H140.332H143.957V75.3459V79.1234L147.53 79.0643L151.102 79.0052L151.158 71.73L151.214 64.4548H154.73H158.246V60.898V57.3413H154.727H151.209V60.898V64.4548H147.583H143.957V60.898V57.3413H140.332H136.706V64.4548V71.5684H133.187H129.668V64.46V57.3514L125.989 57.2925L122.31 57.2335L122.255 46.2937L122.2 35.3539H118.683H115.166V28.1326V20.9113H118.685H122.204V17.2467V13.5821H118.685H115.166V17.2467V20.9113H108.021H100.877V13.6899V6.46859H104.502H108.128V3.23516V0.00172458H104.396H100.664V3.23516V6.46859H97.1445H93.6256V3.23516V0.00172458H90H86.3744V3.23516ZM115.166 3.23516V6.46859H118.685H122.204V3.23516V0.00172458H118.685H115.166V3.23516ZM129.668 25.0061V50.0121H154.723H179.779L179.884 49.5271C179.942 49.2605 179.968 38.0323 179.941 24.5758L179.893 0.109506L154.781 0.0547529L129.668 0V25.0061ZM7.46446 24.5758V42.683H25.3791H43.2938V24.5758V6.46859H25.3791H7.46446V24.5758ZM57.7962 10.0254V13.5821H61.3152H64.8341V10.0254V6.46859H61.3152H57.7962V10.0254ZM136.919 24.5758V42.683H154.834H172.749V24.5758V6.46859H154.834H136.919V24.5758ZM14.5024 24.468V35.3539H25.2725H36.0427V24.468V13.5821H25.2725H14.5024V24.468ZM143.957 24.468V35.3539H154.727H165.498V24.468V13.5821H154.727H143.957V24.468ZM108.077 42.6291L108.021 49.9044L104.454 49.9634L100.887 50.0225L100.829 53.628L100.77 57.2335L97.1979 57.2925L93.6256 57.3516V53.6819V50.0121H90H86.3744V57.2335V64.4548H90H93.6256V68.0116V71.5684H97.1445H100.664V68.0116V64.4548H104.396H108.128V71.7839V79.113H104.502H100.877V82.6698V86.2266H108.021H115.166V89.8911V93.5557H111.647H108.128V97.2203V100.885H104.502H100.877V108.106V115.327H108.021H115.166V111.771V108.214H118.685H122.204V97.2203V86.2266H118.685H115.166V82.6698V79.113H118.685H122.204V75.3407V71.5684H118.685H115.166V68.0116V64.4548H111.647H108.128V60.898V57.3413H111.647H115.166V46.3476V35.3539H111.65H108.134L108.077 42.6291ZM64.8341 46.2398V49.7966H68.3531H71.872V46.2398V42.683H68.3531H64.8341V46.2398ZM79.3365 46.2398V49.7966H82.8555H86.3744V46.2398V42.683H82.8555H79.3365V46.2398ZM93.6256 46.2398V49.7966H97.1445H100.664V46.2398V42.683H97.1445H93.6256V46.2398ZM0 60.898V64.4548H3.73223H7.46446V71.7839V79.113H3.73223H0V100.777V122.441H3.73223H7.46446V111.663V100.885H10.9834H14.5024V104.549V108.214H21.7536H29.0047V111.771V115.327H25.3791H21.7536V118.884V122.441H25.3791H29.0047V118.884V115.327H32.5237H36.0427V118.884V122.441H43.2992H50.5557L50.497 118.938L50.4384 115.435L46.8661 115.376L43.2938 115.317V111.771V108.224L46.8661 108.165L50.4384 108.106L50.4968 104.495L50.5553 100.885H43.299H36.0427V97.2203V93.5557H57.6896H79.3365V89.8911V86.2266H72.0853H64.8341V82.6698V79.113H57.6947H50.555L50.4968 75.3946L50.4384 71.6761L46.8661 71.6171L43.2938 71.558V75.3355V79.113H39.6682H36.0427V82.6698V86.2266H32.5237H29.0047V78.8975V71.5684H32.5237H36.0427V64.4548V57.3413H18.0213H0V60.898ZM71.872 60.898V64.4548H75.6043H79.3365V60.898V57.3413H75.6043H71.872V60.898ZM165.498 60.898V64.4548H169.017H172.536V68.0116V71.5684H176.268H180V68.0116V64.4548H176.374H172.749V60.898V57.3413H169.123H165.498V60.898ZM14.5024 71.7811V79.113H10.9834H7.46446V86.3344V93.5557H10.9834H14.5024V97.2203V100.885H18.128H21.7536V97.2203V93.5557H25.3791H29.0047V89.8911V86.2266H25.3791H21.7536V78.8975V71.5684H25.3845H29.0154L28.9568 68.0655L28.8981 64.5626L21.7002 64.5059L14.5024 64.449V71.7811ZM158.246 75.3407V79.113H161.872H165.498V75.3407V71.5684H161.872H158.246V75.3407ZM43.2938 82.6698V86.2266H46.9194H50.545V82.6698V79.113H46.9194H43.2938V82.6698ZM14.5024 89.8911V93.5557H18.128H21.7536V89.8911V86.2266H18.128H14.5024V89.8911ZM129.668 97.2203V100.885H133.187H136.706V97.2203V93.5557H133.187H129.668V97.2203ZM29.0047 104.549V108.214H32.5237H36.0427V104.549V100.885H32.5237H29.0047V104.549ZM108.128 104.549V108.214H111.647H115.166V104.549V100.885H111.647H108.128V104.549ZM86.3744 111.771V115.327H90H93.6256V111.771V108.214H90H86.3744V111.771ZM93.7678 122.585C93.6896 122.664 93.6256 124.361 93.6256 126.357V129.986H97.1445H100.664V126.213V122.441H97.2868C95.4294 122.441 93.8459 122.506 93.7678 122.585ZM122.346 122.585C122.268 122.664 122.204 127.611 122.204 133.578V144.428H133.081H143.957V133.435V122.441H133.223C127.319 122.441 122.424 122.506 122.346 122.585ZM0.265735 154.937L0.319905 179.888H25.3791H50.4384L50.4926 154.937L50.5467 129.986H25.3791H0.211564L0.265735 154.937ZM129.668 133.542V137.099H133.187H136.706V133.542V129.986H133.187H129.668V133.542ZM7.56256 137.369C7.50668 137.517 7.48578 145.689 7.51607 155.53L7.57109 173.421L25.4325 173.477L43.2938 173.532V155.316V137.099H25.4792C11.4238 137.099 7.64296 137.156 7.56256 137.369ZM14.5024 155.314V166.2H25.2725H36.0427V155.314V144.428H25.2725H14.5024V155.314ZM71.872 155.314V158.871H75.6043H79.3365V155.314V151.757H75.6043H71.872V155.314ZM136.706 155.314V158.871H133.187H129.668V162.536V166.2H136.813H143.957V158.979V151.757H140.332H136.706V155.314ZM115.166 162.536V166.2H118.685H122.204V162.536V158.871H118.685H115.166V162.536ZM165.498 162.536V166.2H161.872H158.246V169.757V173.314H161.872H165.498V169.757V166.2H169.017H172.536V162.536V158.871H169.017H165.498V162.536Z" fill="#0F0F0F"/>
</svg>
