<svg xmlns="http://www.w3.org/2000/svg" width="25" height="24" viewBox="0 0 25 24" fill="none">
  <path
    d="M12.5107 1C17.7036 1 21.9355 5.1672 21.9355 10.2959V14.3457C21.9355 14.339 21.9337 14.3319 21.9336 14.3252C21.9318 14.5215 21.914 14.7134 21.8818 14.9004L21.8125 15.4902C21.6104 16.911 21.0978 18.6161 19.873 20.0186C18.5802 21.4824 16.7531 22.3272 14.4238 22.5195C14.2635 22.7972 13.9746 23 13.6328 23H12.4043C11.9021 23 11.4961 22.594 11.4961 22.0918C11.4961 21.5896 11.9021 21.1836 12.4043 21.1836H13.6436C13.9534 21.1836 14.2098 21.344 14.3701 21.5684C16.4323 21.3867 18.0461 20.6602 19.168 19.3887C19.7342 18.737 20.1294 17.9998 20.4072 17.252C20.4179 17.2413 20.4395 17.2304 20.4502 17.2197C21.168 16.6968 21.6873 15.9075 21.8604 15.0137C21.6764 15.9077 21.16 16.6765 20.4502 17.1982C20.3647 17.2623 20.2896 17.305 20.2041 17.3584C20.0866 17.4332 19.9691 17.4974 19.8516 17.5508C19.7875 17.5828 19.734 17.6153 19.6699 17.6367C19.2639 17.797 18.8256 17.8926 18.3555 17.8926H17.4473C17.052 17.8925 16.7422 17.5828 16.7422 17.1875V11.4814C16.7424 11.0863 17.0521 10.7764 17.4473 10.7764H18.3555C18.8149 10.7764 19.2639 10.8729 19.6699 11.0332C19.7339 11.0652 19.7875 11.0862 19.8516 11.1182C19.9797 11.1716 20.0866 11.2464 20.2041 11.3105C20.2896 11.364 20.3754 11.4173 20.4502 11.4707C20.4717 11.4865 20.4925 11.5033 20.5137 11.5195V10.2959C20.5137 5.94719 16.9128 2.41016 12.5 2.41016C8.07668 2.41037 4.48633 5.94732 4.48633 10.2959V11.5244C4.49701 11.5137 4.51861 11.5029 4.5293 11.4922C3.70784 12.0933 3.14951 13.0422 3.08301 14.127C3.1496 13.0434 3.7079 12.1032 4.5293 11.4922C4.61476 11.4281 4.71148 11.3746 4.80762 11.3105C4.90368 11.2465 5.01056 11.1823 5.12793 11.1289C5.19197 11.0969 5.25627 11.0653 5.32031 11.0439C5.72632 10.8837 6.17534 10.7871 6.63477 10.7871H7.55371C7.93805 10.7873 8.25854 11.0972 8.25879 11.4922V17.209C8.25879 17.6042 7.9382 17.9139 7.55371 17.9141H6.63477C6.16472 17.9141 5.72627 17.8184 5.32031 17.6582C5.25621 17.6262 5.19204 17.6043 5.12793 17.5723C5.02114 17.5189 4.91441 17.4547 4.80762 17.3906C4.71145 17.3372 4.61478 17.2731 4.5293 17.209C3.6533 16.5572 3.07624 15.5209 3.07617 14.3457V10.2959C3.07617 5.16731 7.29672 1.00019 12.5107 1ZM20.915 11.8779C21.2018 12.1741 21.4399 12.5177 21.6133 12.8945C21.411 12.4525 21.121 12.0591 20.7676 11.7334L20.915 11.8779Z"
    fill="var(--text-5)" />
</svg>