<svg width="274" height="63" viewBox="0 0 274 63" fill="none" xmlns="http://www.w3.org/2000/svg">
<path d="M245.895 44.9921C243.484 44.9921 241.293 44.6634 239.321 44.006C237.349 43.3243 235.644 42.3869 234.208 41.1939C232.772 39.9766 231.652 38.5645 230.848 36.9576C230.069 35.3507 229.679 33.6099 229.679 31.7352C229.679 29.8604 230.069 28.1196 230.848 26.5127C231.652 24.9058 232.772 23.5059 234.208 22.3129C235.669 21.0955 237.373 20.1582 239.321 19.5008C241.293 18.8191 243.472 18.4782 245.858 18.4782C248.22 18.4782 250.387 18.8191 252.359 19.5008C254.331 20.1582 256.035 21.0955 257.471 22.3129C258.908 23.5059 260.016 24.9058 260.795 26.5127C261.598 28.1196 262 29.8604 262 31.7352C262 33.6099 261.598 35.3507 260.795 36.9576C260.016 38.5645 258.908 39.9766 257.471 41.1939C256.035 42.3869 254.331 43.3243 252.359 44.006C250.387 44.6634 248.232 44.9921 245.895 44.9921ZM245.858 39.1488C247.294 39.1488 248.609 38.9662 249.802 38.601C251.02 38.2114 252.066 37.688 252.943 37.0306C253.819 36.3489 254.489 35.5576 254.952 34.6568C255.439 33.7559 255.682 32.7821 255.682 31.7352C255.682 30.6882 255.439 29.7144 254.952 28.8135C254.489 27.9127 253.819 27.1336 252.943 26.4762C252.066 25.7945 251.02 25.271 249.802 24.9058C248.609 24.5163 247.294 24.3215 245.858 24.3215C244.422 24.3215 243.095 24.5163 241.877 24.9058C240.684 25.271 239.637 25.7945 238.737 26.4762C237.86 27.1336 237.19 27.9127 236.728 28.8135C236.265 29.7144 236.034 30.6882 236.034 31.7352C236.034 32.7821 236.265 33.7559 236.728 34.6568C237.19 35.5576 237.86 36.3489 238.737 37.0306C239.637 37.688 240.684 38.2114 241.877 38.601C243.095 38.9662 244.422 39.1488 245.858 39.1488Z" fill="url(#paint0_linear_94_20)"/>
<path d="M214.222 44.627L204.069 33.0866L191.396 19.0627H199.321L209.072 30.1284L222.183 44.627H214.222ZM191.214 44.627L203.375 30.7128L208.159 33.5979L198.92 44.627H191.214ZM209.949 32.7579L205.238 29.9823L214.039 19.0627H221.781L209.949 32.7579Z" fill="url(#paint1_linear_94_20)"/>
<path d="M167.597 44.9921C165.186 44.9921 162.995 44.6634 161.023 44.006C159.051 43.3243 157.347 42.3869 155.91 41.1939C154.474 39.9766 153.354 38.5645 152.55 36.9576C151.771 35.3507 151.382 33.6099 151.382 31.7352C151.382 29.8604 151.771 28.1196 152.55 26.5127C153.354 24.9058 154.474 23.5059 155.91 22.3129C157.371 21.0955 159.075 20.1582 161.023 19.5008C162.995 18.8191 165.174 18.4782 167.56 18.4782C169.922 18.4782 172.089 18.8191 174.061 19.5008C176.033 20.1582 177.737 21.0955 179.174 22.3129C180.61 23.5059 181.718 24.9058 182.497 26.5127C183.301 28.1196 183.702 29.8604 183.702 31.7352C183.702 33.6099 183.301 35.3507 182.497 36.9576C181.718 38.5645 180.61 39.9766 179.174 41.1939C177.737 42.3869 176.033 43.3243 174.061 44.006C172.089 44.6634 169.934 44.9921 167.597 44.9921ZM167.56 39.1488C168.997 39.1488 170.311 38.9662 171.504 38.601C172.722 38.2114 173.769 37.688 174.645 37.0306C175.522 36.3489 176.191 35.5576 176.654 34.6568C177.141 33.7559 177.384 32.7821 177.384 31.7352C177.384 30.6882 177.141 29.7144 176.654 28.8135C176.191 27.9127 175.522 27.1336 174.645 26.4762C173.769 25.7945 172.722 25.271 171.504 24.9058C170.311 24.5163 168.997 24.3215 167.56 24.3215C166.124 24.3215 164.797 24.5163 163.579 24.9058C162.386 25.271 161.34 25.7945 160.439 26.4762C159.562 27.1336 158.893 27.9127 158.43 28.8135C157.968 29.7144 157.736 30.6882 157.736 31.7352C157.736 32.7821 157.968 33.7559 158.43 34.6568C158.893 35.5576 159.562 36.3489 160.439 37.0306C161.34 37.688 162.386 38.2114 163.579 38.601C164.797 38.9662 166.124 39.1488 167.56 39.1488Z" fill="url(#paint2_linear_94_20)"/>
<path d="M114.29 44.627V19.0627H128.861C131.101 19.0627 132.988 19.3184 134.522 19.8297C136.08 20.341 137.249 21.0592 138.028 21.9844C138.807 22.9096 139.197 24.0295 139.197 25.3443C139.197 26.7564 138.771 27.9737 137.918 28.9963C137.066 29.9945 135.776 30.6884 134.047 31.078L134.23 30.4206C135.326 30.6641 136.348 31.0536 137.298 31.5892C138.272 32.1005 139.051 32.7944 139.635 33.6709C140.244 34.5474 140.548 35.6187 140.548 36.8847C140.548 38.4429 140.219 39.7211 139.562 40.7194C138.905 41.7176 138.04 42.5089 136.969 43.0932C135.898 43.6532 134.729 44.0549 133.463 44.2984C132.221 44.5175 131.004 44.627 129.811 44.627H114.29ZM120.133 39.4411H129.957C130.809 39.4411 131.564 39.3437 132.221 39.149C132.903 38.9542 133.439 38.6499 133.828 38.236C134.242 37.7977 134.449 37.2499 134.449 36.5925C134.449 35.8378 134.193 35.2656 133.682 34.8761C133.171 34.4622 132.55 34.1822 131.82 34.0361C131.089 33.8657 130.407 33.7805 129.774 33.7805H120.133V39.4411ZM120.133 29.1059H128.934C129.738 29.1059 130.444 29.0085 131.053 28.8137C131.686 28.6189 132.173 28.3389 132.513 27.9737C132.879 27.6085 133.061 27.1459 133.061 26.5859C133.061 25.7338 132.635 25.1373 131.783 24.7964C130.955 24.4312 129.933 24.2486 128.715 24.2486H120.133V29.1059Z" fill="url(#paint3_linear_94_20)"/>
<path d="M12 50.6561H32.5688C34.2924 50.6561 35.8914 49.7576 36.7877 48.2853L58.4096 12.7708H37.9717C36.2527 12.7708 34.6574 13.6644 33.7596 15.1302L12 50.6561Z" fill="url(#paint4_linear_94_20)"/>
<path d="M45.1497 50.6561H65.7185C67.4421 50.6561 69.0411 49.7576 69.9375 48.2853L91.5593 12.7708H71.1214C69.4025 12.7708 67.8071 13.6644 66.9093 15.1302L45.1497 50.6561Z" fill="url(#paint5_linear_94_20)"/>
<defs>
<linearGradient id="paint0_linear_94_20" x1="188.145" y1="18.4782" x2="188.145" y2="44.9921" gradientUnits="userSpaceOnUse">
<stop offset="0.455"/>
<stop offset="1" stop-color="#5C5C5C"/>
</linearGradient>
<linearGradient id="paint1_linear_94_20" x1="188.145" y1="18.4782" x2="188.145" y2="44.9921" gradientUnits="userSpaceOnUse">
<stop offset="0.455"/>
<stop offset="1" stop-color="#5C5C5C"/>
</linearGradient>
<linearGradient id="paint2_linear_94_20" x1="188.145" y1="18.4782" x2="188.145" y2="44.9921" gradientUnits="userSpaceOnUse">
<stop offset="0.455"/>
<stop offset="1" stop-color="#5C5C5C"/>
</linearGradient>
<linearGradient id="paint3_linear_94_20" x1="188.145" y1="18.4782" x2="188.145" y2="44.9921" gradientUnits="userSpaceOnUse">
<stop offset="0.455"/>
<stop offset="1" stop-color="#5C5C5C"/>
</linearGradient>
<linearGradient id="paint4_linear_94_20" x1="51.7796" y1="12.7708" x2="51.7796" y2="50.6561" gradientUnits="userSpaceOnUse">
<stop offset="0.455"/>
<stop offset="1" stop-color="#5C5C5C"/>
</linearGradient>
<linearGradient id="paint5_linear_94_20" x1="51.7796" y1="12.7708" x2="51.7796" y2="50.6561" gradientUnits="userSpaceOnUse">
<stop offset="0.455"/>
<stop offset="1" stop-color="#5C5C5C"/>
</linearGradient>
</defs>
</svg>
