<svg width="274" height="63" viewBox="0 0 274 63" fill="none" xmlns="http://www.w3.org/2000/svg">
<path d="M245.895 44.8774C243.484 44.8774 241.293 44.5488 239.321 43.8914C237.349 43.2097 235.644 42.2723 234.208 41.0793C232.772 39.862 231.652 38.4498 230.848 36.8429C230.069 35.236 229.679 33.4952 229.679 31.6205C229.679 29.7458 230.069 28.005 230.848 26.3981C231.652 24.7912 232.772 23.3913 234.208 22.1983C235.669 20.9809 237.373 20.0435 239.321 19.3862C241.293 18.7045 243.472 18.3636 245.858 18.3636C248.22 18.3636 250.387 18.7045 252.359 19.3862C254.331 20.0435 256.035 20.9809 257.471 22.1983C258.908 23.3913 260.016 24.7912 260.795 26.3981C261.598 28.005 262 29.7458 262 31.6205C262 33.4952 261.598 35.236 260.795 36.8429C260.016 38.4498 258.908 39.862 257.471 41.0793C256.035 42.2723 254.331 43.2097 252.359 43.8914C250.387 44.5488 248.232 44.8774 245.895 44.8774ZM245.858 39.0342C247.294 39.0342 248.609 38.8516 249.802 38.4864C251.02 38.0968 252.066 37.5734 252.943 36.916C253.819 36.2343 254.489 35.443 254.952 34.5422C255.439 33.6413 255.682 32.6674 255.682 31.6205C255.682 30.5736 255.439 29.5997 254.952 28.6989C254.489 27.7981 253.819 27.0189 252.943 26.3616C252.066 25.6799 251.02 25.1564 249.802 24.7912C248.609 24.4017 247.294 24.2069 245.858 24.2069C244.422 24.2069 243.095 24.4017 241.877 24.7912C240.684 25.1564 239.637 25.6799 238.737 26.3616C237.86 27.0189 237.19 27.7981 236.728 28.6989C236.265 29.5997 236.034 30.5736 236.034 31.6205C236.034 32.6674 236.265 33.6413 236.728 34.5422C237.19 35.443 237.86 36.2343 238.737 36.916C239.637 37.5734 240.684 38.0968 241.877 38.4864C243.095 38.8516 244.422 39.0342 245.858 39.0342Z" fill="url(#paint0_linear_94_25)"/>
<path d="M214.222 44.5124L204.069 32.972L191.396 18.9481H199.321L209.072 30.0138L222.183 44.5124H214.222ZM191.214 44.5124L203.375 30.5981L208.159 33.4832L198.92 44.5124H191.214ZM209.949 32.6433L205.238 29.8677L214.039 18.9481H221.781L209.949 32.6433Z" fill="url(#paint1_linear_94_25)"/>
<path d="M167.597 44.8774C165.186 44.8774 162.995 44.5488 161.023 43.8914C159.051 43.2097 157.347 42.2723 155.91 41.0793C154.474 39.862 153.354 38.4498 152.55 36.8429C151.771 35.236 151.382 33.4952 151.382 31.6205C151.382 29.7458 151.771 28.005 152.55 26.3981C153.354 24.7912 154.474 23.3913 155.91 22.1983C157.371 20.9809 159.075 20.0435 161.023 19.3862C162.995 18.7045 165.174 18.3636 167.56 18.3636C169.922 18.3636 172.089 18.7045 174.061 19.3862C176.033 20.0435 177.737 20.9809 179.174 22.1983C180.61 23.3913 181.718 24.7912 182.497 26.3981C183.301 28.005 183.702 29.7458 183.702 31.6205C183.702 33.4952 183.301 35.236 182.497 36.8429C181.718 38.4498 180.61 39.862 179.174 41.0793C177.737 42.2723 176.033 43.2097 174.061 43.8914C172.089 44.5488 169.934 44.8774 167.597 44.8774ZM167.56 39.0342C168.997 39.0342 170.311 38.8516 171.504 38.4864C172.722 38.0968 173.769 37.5734 174.645 36.916C175.522 36.2343 176.191 35.443 176.654 34.5422C177.141 33.6413 177.384 32.6674 177.384 31.6205C177.384 30.5736 177.141 29.5997 176.654 28.6989C176.191 27.7981 175.522 27.0189 174.645 26.3616C173.769 25.6799 172.722 25.1564 171.504 24.7912C170.311 24.4017 168.997 24.2069 167.56 24.2069C166.124 24.2069 164.797 24.4017 163.579 24.7912C162.386 25.1564 161.34 25.6799 160.439 26.3616C159.562 27.0189 158.893 27.7981 158.43 28.6989C157.968 29.5997 157.736 30.5736 157.736 31.6205C157.736 32.6674 157.968 33.6413 158.43 34.5422C158.893 35.443 159.562 36.2343 160.439 36.916C161.34 37.5734 162.386 38.0968 163.579 38.4864C164.797 38.8516 166.124 39.0342 167.56 39.0342Z" fill="url(#paint2_linear_94_25)"/>
<path d="M114.29 44.5124V18.9481H128.861C131.101 18.9481 132.988 19.2038 134.522 19.715C136.08 20.2263 137.249 20.9446 138.028 21.8697C138.807 22.7949 139.197 23.9149 139.197 25.2296C139.197 26.6417 138.771 27.8591 137.918 28.8817C137.066 29.8799 135.776 30.5738 134.047 30.9633L134.23 30.306C135.326 30.5494 136.348 30.939 137.298 31.4746C138.272 31.9859 139.051 32.6798 139.635 33.5563C140.244 34.4328 140.548 35.504 140.548 36.7701C140.548 38.3283 140.219 39.6065 139.562 40.6047C138.905 41.603 138.04 42.3942 136.969 42.9786C135.898 43.5385 134.729 43.9403 133.463 44.1837C132.221 44.4029 131.004 44.5124 129.811 44.5124H114.29ZM120.133 39.3265H129.957C130.809 39.3265 131.564 39.2291 132.221 39.0343C132.903 38.8396 133.439 38.5352 133.828 38.1213C134.242 37.6831 134.449 37.1353 134.449 36.4779C134.449 35.7232 134.193 35.151 133.682 34.7615C133.171 34.3476 132.55 34.0676 131.82 33.9215C131.089 33.7511 130.407 33.6658 129.774 33.6658H120.133V39.3265ZM120.133 28.9912H128.934C129.738 28.9912 130.444 28.8938 131.053 28.6991C131.686 28.5043 132.173 28.2243 132.513 27.8591C132.879 27.4939 133.061 27.0313 133.061 26.4713C133.061 25.6192 132.635 25.0227 131.783 24.6818C130.955 24.3166 129.933 24.134 128.715 24.134H120.133V28.9912Z" fill="url(#paint3_linear_94_25)"/>
<path d="M12 50.5415H32.5688C34.2924 50.5415 35.8914 49.643 36.7877 48.1707L58.4096 12.6561H37.9717C36.2527 12.6561 34.6574 13.5498 33.7596 15.0156L12 50.5415Z" fill="url(#paint4_linear_94_25)"/>
<path d="M45.1497 50.5415H65.7185C67.4421 50.5415 69.0411 49.643 69.9375 48.1707L91.5593 12.6561H71.1214C69.4025 12.6561 67.8071 13.5498 66.9093 15.0156L45.1497 50.5415Z" fill="url(#paint5_linear_94_25)"/>
<defs>
<linearGradient id="paint0_linear_94_25" x1="188.145" y1="18.3636" x2="188.145" y2="44.8774" gradientUnits="userSpaceOnUse">
<stop offset="0.405" stop-color="white"/>
<stop offset="1" stop-color="#5D5D5D"/>
</linearGradient>
<linearGradient id="paint1_linear_94_25" x1="188.145" y1="18.3636" x2="188.145" y2="44.8774" gradientUnits="userSpaceOnUse">
<stop offset="0.405" stop-color="white"/>
<stop offset="1" stop-color="#5D5D5D"/>
</linearGradient>
<linearGradient id="paint2_linear_94_25" x1="188.145" y1="18.3636" x2="188.145" y2="44.8774" gradientUnits="userSpaceOnUse">
<stop offset="0.405" stop-color="white"/>
<stop offset="1" stop-color="#5D5D5D"/>
</linearGradient>
<linearGradient id="paint3_linear_94_25" x1="188.145" y1="18.3636" x2="188.145" y2="44.8774" gradientUnits="userSpaceOnUse">
<stop offset="0.405" stop-color="white"/>
<stop offset="1" stop-color="#5D5D5D"/>
</linearGradient>
<linearGradient id="paint4_linear_94_25" x1="51.7796" y1="12.6561" x2="51.7796" y2="50.5415" gradientUnits="userSpaceOnUse">
<stop offset="0.405" stop-color="white"/>
<stop offset="1" stop-color="#5D5D5D"/>
</linearGradient>
<linearGradient id="paint5_linear_94_25" x1="51.7796" y1="12.6561" x2="51.7796" y2="50.5415" gradientUnits="userSpaceOnUse">
<stop offset="0.405" stop-color="white"/>
<stop offset="1" stop-color="#5D5D5D"/>
</linearGradient>
</defs>
</svg>
